<svg xmlns="http://www.w3.org/2000/svg" viewBox="0 0 72 72" xmlns:v="https://vecta.io/nano"><path fill="#ea5a47" d="M24.488 52.117c-.544 2.691-.439 4.993.305 6.66a9.15 9.15 0 0 0 12.07 4.62c2.229-.995 3.938-2.798 4.81-5.078a9.08 9.08 0 0 0-.189-6.993c-1.098-2.458-2.471-4.353-5.066-5.103-.309-.089-.039-1.131.084-1.427l.84-2.813-7.599-2.53c-3.421 7.729-5.105 11.923-5.253 12.663zm10.033-2.006c1.225.28 2.269 1.019 2.938 2.084s.882 2.325.602 3.551-1.02 2.269-2.084 2.938a4.68 4.68 0 0 1-2.494.722c-.352 0-.706-.04-1.057-.12-1.226-.28-2.269-1.019-2.938-2.084s-.882-2.325-.602-3.551 1.02-2.269 2.084-2.938 2.33-.881 3.551-.602z"/><path fill="#d0cfce" d="M37.009 42.077l12.133-30.045c-2.187.695-4.555 1.24-6.5 3.214-2.443 2.479-4.225 6.392-4.225 6.392l-7.952 17.344c-.013.03 6.544 3.095 6.544 3.095z"/><path fill="#9b9b9a" d="M61.011 24.5l-14.812 4.951-3.95 1.644-5.136 12.966 5.709-2.744.002-.015c-.103.034 9.415-5.641 9.588-5.731 4.024-2.078 7.027-6.144 8.6-11.071z"/><path fill="#d22f27" d="M21.833 32.884c-4.082-1.822-10.4.207-12.222 4.287s-.179 10.432 3.903 12.254c1.477.66 3.942 1.056 6.33.574.102-.02 3.366-.227 2.978.025l2.285-1.063a725.06 725.06 0 0 1 5.006-11.988l-2.738 1.314-.006.011c-.018.284-3.477-4.495-5.536-5.415zm-.248 10.35c-.646 1.028-1.653 1.742-2.837 2.012-.339.078-.678.115-1.012.115-2.073 0-3.95-1.43-4.43-3.534a4.51 4.51 0 0 1 .582-3.429c.646-1.028 1.653-1.742 2.837-2.012a4.52 4.52 0 0 1 3.429.582c1.028.646 1.742 1.653 2.012 2.837s.064 2.402-.582 3.429z"/><g fill="none" stroke="#000" stroke-linejoin="round" stroke-miterlimit="10" stroke-width="2"><path stroke-linecap="round" d="M29.584 39.621c3.058-6.88 6.653-14.644 7.8-16.865 2.072-4.012 5.734-10.19 12.542-11.194L37.264 42.116"/><path d="M41.462 50.976c-1.138-2.549-3.304-4.315-5.792-5.034l1.593-3.827-7.68-2.494c-2.505 5.64-4.88 11.216-5.092 12.265-.361 1.787-.616 4.374.338 6.513a9.11 9.11 0 0 0 12.028 4.604 9.11 9.11 0 0 0 4.604-12.028zm-3.55 4.736c-.56 2.452-3.001 3.986-5.453 3.426s-3.986-3.001-3.426-5.453 3.001-3.986 5.453-3.426 3.985 3.001 3.426 5.453z"/><path d="M26.373 38.238c-.784-2.326-2.496-4.331-4.914-5.41A9.11 9.11 0 0 0 9.43 37.432a9.11 9.11 0 0 0 4.604 12.028c2.139.955 4.726.7 6.513.338.293-.059.898-.27 1.742-.597m-3.541-3.945c-2.452.56-4.893-.974-5.453-3.426s.974-4.893 3.426-5.453 4.893.974 5.453 3.426-.974 4.893-3.426 5.453zm27.877-14.909l14.247-5.982c-1.004 6.808-7.182 10.47-11.194 12.542-1.312.677-3.312 1.693-7.166 3.463" stroke-linecap="round"/></g></svg>